<?xml version="1.0" encoding="UTF-8" standalone="no"?>
<svg
   xmlns:dc="http://purl.org/dc/elements/1.1/"
   xmlns:cc="http://creativecommons.org/ns#"
   xmlns:rdf="http://www.w3.org/1999/02/22-rdf-syntax-ns#"
   xmlns:svg="http://www.w3.org/2000/svg"
   xmlns="http://www.w3.org/2000/svg"
   xmlns:sodipodi="http://sodipodi.sourceforge.net/DTD/sodipodi-0.dtd"
   xmlns:inkscape="http://www.inkscape.org/namespaces/inkscape"
   sodipodi:docname="logo.svg"
   inkscape:version="1.0 (6e3e5246a0, 2020-05-07)"
   id="svg6067"
   version="1.1"
   viewBox="0 0 155.19448 188.18703"
   height="188.18703mm"
   width="155.19447mm">
  <defs
     id="defs6061" />
  <sodipodi:namedview
     inkscape:document-rotation="0"
     showborder="false"
     inkscape:showpageshadow="false"
     guidetolerance="14"
     inkscape:snap-tangential="true"
     inkscape:snap-perpendicular="true"
     showguides="false"
     inkscape:window-maximized="1"
     inkscape:window-y="27"
     inkscape:window-x="62"
     inkscape:window-height="960"
     inkscape:window-width="1218"
     objecttolerance="10000"
     showgrid="false"
     inkscape:current-layer="layer1"
     inkscape:document-units="mm"
     inkscape:cy="292.40458"
     inkscape:cx="44.710426"
     inkscape:zoom="0.35"
     inkscape:pageshadow="2"
     inkscape:pageopacity="1"
     borderopacity="1.0"
     bordercolor="#666666"
     pagecolor="#000000"
     id="base" />
  <metadata
     id="metadata6064">
    <rdf:RDF>
      <cc:Work
         rdf:about="">
        <dc:format>image/svg+xml</dc:format>
        <dc:type
           rdf:resource="http://purl.org/dc/dcmitype/StillImage" />
        <dc:title />
      </cc:Work>
    </rdf:RDF>
  </metadata>
  <g
     style="opacity:1"
     transform="translate(-5.5572704,-4.7497706)"
     id="layer1"
     inkscape:groupmode="layer"
     inkscape:label="Layer 1">
    <path
       sodipodi:nodetypes="cssccscccscsscccscscsscccccsssssssssccscccccccccccccccscccccsssccssccccscsssscccccccccccsccc"
       inkscape:connector-curvature="0"
       id="path10961"
       d="m 7.1449564,180.88691 c -2.1030761,-1.87914 -0.6478871,-11.92082 2.7656998,-19.08489 1.9798188,-4.15504 4.2380758,-11.24475 5.0183458,-15.75501 1.825982,-10.55481 6.204402,-18.71134 14.30104,-26.64145 6.802047,-6.66212 16.690529,-13.02623 18.60086,-11.9713 0.618196,0.34137 -2.700959,4.2338 -7.375863,8.64981 -9.112197,8.60755 -15.798829,18.32465 -15.152532,22.01986 0.360578,2.06167 1.131113,1.79787 8.196644,-2.80617 12.109381,-7.89073 12.653203,-6.01212 1.198335,4.13958 -10.154906,8.99968 -18.378998,20.45816 -18.378998,25.60716 0,2.81841 0.541834,2.68815 10.248363,-2.46441 18.52782,-9.83515 36.834712,-13.48309 55.687526,-11.09653 6.0482,0.76563 14.092793,2.31707 17.876883,3.44766 13.44195,4.0161 19.37775,1.45302 11.14841,-4.81387 l -4.26827,-3.25043 11.25845,0.66809 c 14.70388,0.87247 18.45665,-0.69037 23.41912,-9.75286 2.28747,-4.1774 4.80749,-7.00624 7.24461,-8.13232 2.05535,-0.94969 2.80157,-2.15021 2.80157,-2.52109 0,-0.37095 -2.10711,-3.1665 -5.82577,-6.35907 -8.91387,-7.65284 -12.00285,-15.91316 -12.00285,-32.097055 0,-9.657348 -0.42894,-11.93913 -3.24411,-17.256279 -4.92601,-9.303974 -15.38018,-18.709188 -25.97194,-23.36597 -8.821992,-3.878661 -25.687248,-7.196479 -33.302975,-6.994257 -4.721966,-0.02352 -7.400957,-1.047571 -4.587404,-2.638372 0,0 6.56204,-3.183214 9.773912,-3.192635 5.110814,-0.01498 6.672424,-0.653472 12.509384,-5.114757 6.840392,-5.228202 14.336673,-9.597855 20.942853,-12.607793 3.35222,-1.527348 9.77719,-3.907692 14.88347,-6.076727 1.48041,-0.628847 2.57337,-1.5449753 3.69723,-2.3052095 1.3615,-0.9209952 1.46273,-0.9771387 3.38603,-2.0919955 0,0 2.64659,-1.6856207 3.00381,-1.6684777 0.54927,0.026401 -1.37012,2.1884234 -1.87925,2.5797207 -1.66099,1.2765608 -4.73878,3.491062 -4.92669,3.807897 -0.23107,0.389627 5.16304,-2.9712246 5.44382,-2.9371003 1.51828,0.1845133 -5.17137,5.1108223 -5.06811,6.2792993 1.0886,12.318555 0.0373,18.702984 -1.77378,26.959892 l -2.11369,9.636211 4.51886,4.717146 c 2.48536,2.59442 6.47003,8.066324 8.85482,12.159732 4.05752,6.964614 4.37068,8.268151 4.87599,20.296641 0.40807,9.713424 1.15916,14.091949 3.07411,17.920799 2.9873,5.97282 7.51029,11.19273 11.62128,13.81269 2.8009,2.91856 2.51294,6.03788 2.51294,6.03788 -0.52366,4.15041 -3.85983,6.95412 -7.26361,8.55734 -1.35484,0.38433 -3.41607,2.49251 -4.58049,4.68508 -3.46412,6.52278 -10.37688,12.54452 -16.0875,14.01378 -3.06302,0.78809 -6.60719,2.83058 -8.67433,4.99903 -5.7238,6.00418 -10.19656,6.43332 -27.040602,2.59438 -31.852531,-7.25947 -55.748338,-2.39138 -80.709974,16.44223 -4.864703,3.67047 -7.0179628,4.40956 -8.6356276,2.96412 z M 120.49112,40.345911 c 0.56339,-3.00261 0.85698,-8.027655 0.65244,-11.166753 -0.34411,-5.281391 -0.62559,-5.733591 -3.77091,-6.057592 -3.62184,-0.373104 -18.534031,6.687031 -22.596862,10.698389 -2.599873,2.566942 -1.55688,3.689469 5.355472,5.763819 2.40804,0.722643 6.91141,2.532394 10.0075,4.021668 7.69843,3.703107 9.13057,3.252191 10.35236,-3.259531 z m -17.47536,56.617296 c -0.43436,-1.075843 -3.160361,-2.331128 -4.424432,-3.962935 -1.264039,-1.631795 -0.96195,-4.478001 -0.96195,-5.15155 0,-1.050883 9.139742,0.645971 13.539492,1.948107 0.66893,0.197974 -4.12085,3.772599 -3.61903,3.958513 0.53235,0.197239 5.73908,-2.289332 6.00104,-2.126003 2.39902,1.49589 6.78503,4.993568 5.984,6.151635 -0.43297,0.626017 -4.1492,1.138164 -8.25825,1.138164 -3.4141,0 -5.41632,-0.127233 -6.62363,-0.527715 -0.90754,-0.30104 -1.36593,-0.756473 -1.63722,-1.428329 z M 23.812554,81.168326 C 24.395409,76.356145 19.187727,79.81663 16.030938,47.100437 18.016269,36.978541 20.2911,36.871589 23.371462,31.369574 25.803394,27.025756 29.223237,21.786904 30.971093,19.727694 33.661319,16.558272 8.7182021,3.9335963 26.042322,10.876281 26.488606,11.055137 41.428957,17.995225 27.531308,9.5982022 26.425408,8.9300137 25.122179,6.5154363 26.268426,7.023196 34.745738,10.778425 53.668693,25.315594 58.93429,31.691797 64.607716,38.56185 69.971582,49.116003 68.471085,50.45677 68.118163,50.772178 65.606309,48.350345 62.88912,45.075091 53.233297,33.43605 42.204622,25.95351 37.274464,27.696522 c -2.410881,0.852352 -11.137127,12.22949 -13.72213,19.230886 -2.467994,8.856077 -0.457855,13.535354 0.308536,21.50842 3.432952,4.966208 -0.04832,12.732498 -0.04832,12.732498 z m 12.07784,-2.104738 C 34.24336,76.682381 32.44644,63.019645 33.136121,58.121687 c 1.015307,-7.210607 4.239141,-16.222915 6.706984,-18.74953 1.833205,-1.876842 2.169361,-1.786753 6.25661,1.676614 5.559478,4.710896 11.49967,12.940991 11.49967,15.932762 0,1.358262 -2.918185,4.888673 -6.979412,8.443656 -3.838686,3.360168 -8.072035,7.995579 -9.407451,10.300931 -2.340951,4.041191 -4.080743,5.132206 -5.322128,3.337468 z"
       style="fill:#f4eed7;fill-opacity:1;stroke:#2b0000;stroke-width:1.18247;stroke-opacity:1" />
  </g>
</svg>
